HIERARCHY
ROOT Pelvis
{
	OFFSET 0.000000 0.000000 0.000000
	CHANNELS 6 Xposition Yposition Zposition Xrotation Yrotation Zrotation
	JOINT LeftUpLeg_virtual
	{
		OFFSET 0.000000 0.000000 0.000000
		CHANNELS 3 Xrotation Yrotation Zrotation
		JOINT LeftUpLeg
		{
			OFFSET 18.735201 -5.666702 -4.541200
			CHANNELS 3 Xrotation Yrotation Zrotation
			JOINT LeftLeg
			{
				OFFSET -0.021200 -31.938179 0.493100
				CHANNELS 3 Xrotation Yrotation Zrotation
				JOINT LeftFoot
				{
					OFFSET 0.021200 -31.938179 -4.336299
					CHANNELS 3 Xrotation Yrotation Zrotation
					JOINT LeftToeBase
					{
						OFFSET 0.943001 -26.722000 15.023500
						CHANNELS 3 Xrotation Yrotation Zrotation
						End Site
						{
							OFFSET 0 0 0
						}
					}
				}
			}
		}
	}
	JOINT RightUpLeg_virtual
	{
		OFFSET 0.000000 0.000000 0.000000
		CHANNELS 3 Xrotation Yrotation Zrotation
		JOINT RightUpLeg
		{
			OFFSET -18.735201 -5.666702 -4.541200
			CHANNELS 3 Xrotation Yrotation Zrotation
			JOINT RightLeg
			{
				OFFSET 0.018946 -31.938133 0.493100
				CHANNELS 3 Xrotation Yrotation Zrotation
				JOINT RightFoot
				{
					OFFSET -0.018946 -31.938126 -4.336299
					CHANNELS 3 Xrotation Yrotation Zrotation
					JOINT RightToeBase
					{
						OFFSET -0.943001 -26.722004 15.023500
						CHANNELS 3 Xrotation Yrotation Zrotation
						End Site
						{
							OFFSET 0 0 0
						}
					}
				}
			}
		}
	}
	JOINT Hips_virtual
	{
		OFFSET 0.000000 0.000000 0.000000
		CHANNELS 3 Xrotation Yrotation Zrotation
		JOINT Hips
		{
			OFFSET -0.000000 -0.000000 -0.000000
			CHANNELS 3 Xrotation Yrotation Zrotation
			JOINT Spine
			{
				OFFSET 0.000000 10.199997 -0.299500
				CHANNELS 3 Xrotation Yrotation Zrotation
				JOINT Spine1
				{
					OFFSET 0.000000 11.900002 -1.516600
					CHANNELS 3 Xrotation Yrotation Zrotation
					JOINT Spine2
					{
						OFFSET 0.000000 13.600006 -2.842500
						CHANNELS 3 Xrotation Yrotation Zrotation
						JOINT Neck_virtual
						{
							OFFSET 0.000000 0.000000 0.000000
							CHANNELS 3 Xrotation Yrotation Zrotation
							JOINT Neck
							{
								OFFSET 0.000000 9.624100 -2.890100
								CHANNELS 3 Xrotation Yrotation Zrotation
								JOINT Head
								{
									OFFSET 0.000000 14.068802 -1.351900
									CHANNELS 3 Xrotation Yrotation Zrotation
									End Site
									{
										OFFSET 0 0 0
									}
								}
							}
						}
						JOINT LeftShoulder_virtual
						{
							OFFSET 0.000000 0.000000 0.000000
							CHANNELS 3 Xrotation Yrotation Zrotation
							JOINT LeftShoulder
							{
								OFFSET 15.263000 10.923401 -0.547700
								CHANNELS 3 Xrotation Yrotation Zrotation
								JOINT LeftArm
								{
									OFFSET 25.438599 -2.830597 -13.032500
									CHANNELS 3 Xrotation Yrotation Zrotation
									JOINT LeftForeArm
									{
										OFFSET 29.960503 0.000000 0.000000
										CHANNELS 3 Xrotation Yrotation Zrotation
										JOINT LeftHand
										{
											OFFSET 27.849251 0.000000 0.000000
											CHANNELS 3 Xrotation Yrotation Zrotation
											End Site
											{
												OFFSET 0 0 0
											}
										}
									}
								}
							}
						}
						JOINT RightShoulder_virtual
						{
							OFFSET 0.000000 0.000000 0.000000
							CHANNELS 3 Xrotation Yrotation Zrotation
							JOINT RightShoulder
							{
								OFFSET -15.263000 10.923401 -0.547700
								CHANNELS 3 Xrotation Yrotation Zrotation
								JOINT RightArm
								{
									OFFSET -25.438599 -2.830597 -13.032500
									CHANNELS 3 Xrotation Yrotation Zrotation
									JOINT RightForeArm
									{
										OFFSET -29.960503 0.000000 0.000000
										CHANNELS 3 Xrotation Yrotation Zrotation
										JOINT RightHand
										{
											OFFSET -27.849251 0.000000 0.000000
											CHANNELS 3 Xrotation Yrotation Zrotation
											End Site
											{
												OFFSET 0 0 0
											}
										}
									}
								}
							}
						}
					}
				}
			}
		}
	}
}
MOTION
Frames: 9
Frame Time: 0.03333333
-4.220354 79.834908 1.753136 0.000000 0.000000 0.000000 -11.859747 -45.923088 -2.193106 -31.986520 0.786807 17.327584 63.076660 -5.668831 3.920655 -20.695501 -5.505680 -12.511240 0.000000 0.000000 0.000000 -11.482840 -45.600320 -1.843002 -30.538944 -10.324650 -35.982324 67.216301 -2.926077 -6.229460 -21.390064 -11.046738 25.264858 0.000000 0.000000 0.000000 -10.900103 -44.888898 -0.946662 -2.099504 0.194370 -1.172998 14.480788 9.649346 -3.958738 1.388269 1.199985 -0.499250 0.000000 0.000000 0.000000 1.829214 1.394797 -0.733432 2.509270 2.972493 -0.147169 0.000000 0.000000 0.000000 1.043333 1.263837 -1.155406 -0.245300 -1.378309 -9.397744 -50.687312 0.140161 -51.559350 176.189005 -67.407588 175.875718 0.000000 0.000000 0.000000 1.171335 1.549098 -0.970004 1.575001 7.883207 -5.114876 -52.435762 33.606962 83.515797 -175.580586 76.679023 173.242175 0.000000 0.000000 0.000000 
-3.593936 79.211990 1.788015 0.000000 0.000000 0.000000 -11.788089 -46.874253 -1.970897 -32.687790 0.750955 17.029118 63.605372 -6.630112 4.181393 -20.494725 -5.406250 -13.576036 0.000000 0.000000 0.000000 -12.024267 -46.459196 -2.345617 -30.485484 -9.042351 -36.509608 68.116903 -2.278869 -6.843196 -20.482405 -10.203361 26.005021 0.000000 0.000000 0.000000 -11.303824 -45.585229 -1.181145 -2.123075 0.102985 -0.953827 14.965277 9.514968 -3.657068 1.315469 1.061925 -0.580374 0.000000 0.000000 0.000000 1.820591 1.301631 -0.726141 2.569450 3.061669 -0.072132 0.000000 0.000000 0.000000 0.914982 1.126717 -1.217090 -0.146894 -1.561710 -9.542976 -50.986932 -1.490459 -51.133825 176.565103 -69.713227 176.136386 0.000000 0.000000 0.000000 1.076048 1.406582 -1.049561 1.702539 9.160114 -5.347152 -52.292024 34.483856 84.084219 -174.727563 76.734320 172.583021 0.000000 0.000000 0.000000 
-2.761998 77.773926 2.520107 0.000000 0.000000 0.000000 -11.859169 -48.229701 -1.575626 -35.754527 0.202784 17.236631 67.351095 -8.863063 4.236720 -20.369550 -6.429389 -17.430984 0.000000 0.000000 0.000000 -12.671980 -47.649135 -2.726018 -30.652018 -7.206698 -37.870517 70.496957 -1.289741 -7.687909 -21.800099 -9.800031 26.201039 0.000000 0.000000 0.000000 -11.997050 -46.860473 -1.458234 -2.284787 0.046491 -0.863010 15.963544 9.417907 -3.233379 1.056808 0.896286 -0.818233 0.000000 0.000000 0.000000 1.417924 1.105727 -0.883256 2.426986 3.212310 0.018053 0.000000 0.000000 0.000000 0.654624 0.955918 -1.328707 -0.064754 -0.960264 -9.499480 -50.633422 -2.922301 -50.618877 176.940272 -72.854554 176.232131 0.000000 0.000000 0.000000 0.788637 1.221805 -1.293125 2.026654 11.379494 -5.472170 -50.126888 35.018206 83.546833 -174.219985 75.755991 172.503859 0.000000 0.000000 0.000000 
-1.993526 75.710709 3.943598 0.000000 0.000000 0.000000 -12.175325 -50.089824 -1.263646 -40.968332 -0.853757 18.173315 74.454629 -11.604810 4.399397 -19.658258 -8.260229 -22.672635 0.000000 0.000000 0.000000 -13.194239 -49.281089 -2.926478 -30.813500 -5.320398 -40.052830 73.271954 0.068590 -8.446539 -25.167707 -9.791501 26.279750 0.000000 0.000000 0.000000 -12.844018 -48.795165 -1.836775 -2.107005 0.454755 -0.717917 17.318493 9.371200 -2.789617 0.607024 0.786981 -1.151310 0.000000 0.000000 0.000000 0.716433 0.906285 -1.189284 2.078975 3.409621 0.074610 0.000000 0.000000 0.000000 0.315915 0.809878 -1.472526 0.017615 0.462702 -9.317066 -49.244844 -2.976212 -49.551571 177.413576 -74.524863 176.273754 0.000000 0.000000 0.000000 0.411737 1.066423 -1.605306 2.373283 13.641437 -5.585841 -47.508894 34.782277 82.593926 -173.282418 75.059544 172.089061 0.000000 0.000000 0.000000 
-1.245821 73.224098 6.111700 0.000000 0.000000 0.000000 -12.805021 -52.594581 -1.270036 -47.333279 -2.197825 20.342209 83.177245 -14.075597 4.762077 -18.163384 -10.404269 -27.753557 0.000000 0.000000 0.000000 -13.532301 -51.614063 -3.044048 -31.217704 -3.303125 -42.982947 75.618172 2.178719 -8.878968 -28.205266 -9.275701 27.584115 0.000000 0.000000 0.000000 -13.655094 -51.365843 -2.297444 -2.187614 0.988571 -0.527653 18.902390 9.220034 -2.452882 0.058550 0.800747 -1.514719 0.000000 0.000000 0.000000 -0.145778 0.807607 -1.594697 1.589681 3.660408 0.082472 0.000000 0.000000 0.000000 -0.052179 0.763810 -1.642446 0.066270 2.376782 -9.181615 -46.580606 -0.658382 -47.728505 178.040137 -73.361218 176.424264 0.000000 0.000000 0.000000 0.081629 1.004526 -1.926379 2.631048 15.181231 -5.813864 -45.698429 33.750724 82.179566 -171.790418 75.561181 171.101730 0.000000 0.000000 0.000000 
-0.710932 70.809212 8.841276 0.000000 0.000000 0.000000 -13.587307 -55.536832 -1.732672 -53.381948 -3.624035 23.752201 90.792311 -15.763937 5.145276 -15.781623 -12.170861 -31.027842 0.000000 0.000000 0.000000 -13.619774 -54.645779 -3.117258 -32.206056 -0.851143 -46.388357 76.678688 5.158268 -8.970130 -29.082952 -7.820818 30.540617 0.000000 0.000000 0.000000 -14.038240 -54.570951 -2.647472 -1.990401 1.605790 -0.529339 20.447824 8.732253 -2.301743 -0.496528 0.956792 -1.804218 0.000000 0.000000 0.000000 -0.950511 0.830125 -1.972454 1.054142 3.956992 0.028666 0.000000 0.000000 0.000000 -0.312443 0.836450 -1.840226 0.139906 4.300686 -9.322595 -43.710513 3.903814 -45.292415 178.511488 -69.533020 176.536457 0.000000 0.000000 0.000000 -0.201586 1.064279 -2.134254 2.727273 15.657643 -6.143777 -45.572781 33.092594 83.000807 -169.571344 77.271699 169.198088 0.000000 0.000000 0.000000 
-0.257947 68.744339 12.064444 0.000000 0.000000 0.000000 -14.089703 -58.919179 -2.410314 -57.712687 -5.114498 27.934521 95.324968 -16.224686 5.288566 -12.814532 -12.697636 -31.232519 0.000000 0.000000 0.000000 -13.516185 -58.066812 -3.219304 -33.567962 1.945762 -49.919250 75.945939 8.485795 -8.751059 -27.525572 -5.502175 34.028682 0.000000 0.000000 0.000000 -13.928911 -58.188082 -2.866993 -1.803198 2.423047 -0.570737 21.619319 7.639193 -2.318768 -1.012767 1.151785 -1.921048 0.000000 0.000000 0.000000 -1.562321 0.967395 -2.194331 0.565045 4.295281 -0.052587 0.000000 0.000000 0.000000 -0.487843 0.952130 -1.984095 0.181946 5.745439 -9.563464 -41.610728 9.750174 -42.665849 178.408339 -64.806215 176.212720 0.000000 0.000000 0.000000 -0.473123 1.219274 -2.121818 2.618541 15.060620 -6.429513 -46.811357 34.041902 85.263949 -167.701662 78.958476 167.577038 0.000000 0.000000 0.000000 
0.053931 67.362061 15.660724 0.000000 0.000000 0.000000 -13.904161 -62.142721 -2.985236 -59.237800 -6.491588 32.422481 95.309006 -15.796474 5.034505 -9.290990 -11.838847 -28.837001 0.000000 0.000000 0.000000 -13.204350 -61.367262 -3.329390 -34.952366 4.775249 -53.086095 73.716674 11.366669 -8.276262 -24.064923 -2.881321 36.266037 0.000000 0.000000 0.000000 -13.161156 -61.469223 -2.825165 -1.660419 2.842218 -0.839058 22.114759 5.755502 -2.507490 -1.335531 1.264888 -1.774973 0.000000 0.000000 0.000000 -1.815381 1.075423 -2.150250 0.246952 4.666958 -0.129853 0.000000 0.000000 0.000000 -0.598102 1.019069 -1.957395 0.213930 6.411857 -9.697008 -41.385100 14.780060 -40.207387 177.553759 -62.889117 175.343906 0.000000 0.000000 0.000000 -0.776640 1.339287 -1.823338 2.313476 13.865929 -6.439734 -48.134460 37.503513 87.873614 -168.096570 79.586710 168.206167 0.000000 0.000000 0.000000 
0.284348 66.696014 19.663500 0.000000 0.000000 0.000000 -12.881668 -64.410630 -3.250722 -58.127417 -7.522309 36.656652 90.441479 -14.765838 4.513138 -5.742726 -9.788097 -25.137050 0.000000 0.000000 0.000000 -12.560643 -63.860295 -3.356342 -35.684593 7.032168 -55.255602 70.426511 13.130632 -7.770443 -19.551857 -0.733355 35.785096 0.000000 0.000000 0.000000 -11.753426 -63.790156 -2.526833 -1.366135 2.377381 -0.781907 21.698837 3.085601 -2.875913 -1.420494 1.143089 -1.335695 0.000000 0.000000 0.000000 -1.663652 0.985946 -1.769108 0.154980 5.010027 -0.214976 0.000000 0.000000 0.000000 -0.584243 0.900265 -1.619475 0.275924 6.330650 -9.467796 -43.848701 17.118220 -37.798130 175.439624 -67.062165 173.391906 0.000000 0.000000 0.000000 -1.079834 1.263242 -1.207766 1.887148 12.305125 -6.046339 -47.866423 43.316069 88.854259 -170.470607 78.944508 170.944964 0.000000 0.000000 0.000000 
